# This file is brought to you by Roblox Corporation
# Generated by Roblox Studio

mtllib AELDisplays.mtl

g Monitor41

v -2638.05 34.4337 2736.06 
v -2638.04 34.4348 2731.06 
v -2637.74 33.3759 2736.05 
v -2637.74 33.377 2731.05 
v -2637.85 34.4897 2731.06 
v -2638.04 34.4348 2731.06 
v -2637.85 34.4886 2736.06 
v -2638.05 34.4337 2736.06 
v -2638.04 34.4348 2731.06 
v -2637.85 34.4897 2731.06 
v -2637.74 33.377 2731.05 
v -2637.55 33.4319 2731.05 
v -2637.85 34.4897 2731.06 
v -2637.85 34.4886 2736.06 
v -2637.55 33.4319 2731.05 
v -2637.55 33.4308 2736.05 
v -2637.55 33.4308 2736.05 
v -2637.74 33.3759 2736.05 
v -2637.55 33.4319 2731.05 
v -2637.74 33.377 2731.05 
v -2637.85 34.4886 2736.06 
v -2638.05 34.4337 2736.06 
v -2637.55 33.4308 2736.05 
v -2637.74 33.3759 2736.05 

vn -0.96063 -0.275591 0 
vn -0.96063 -0.275591 0 
vn -0.96063 -0.275591 0 
vn -0.96063 -0.275591 0 
vn -0.275591 0.96063 0 
vn -0.275591 0.96063 0 
vn -0.275591 0.96063 0 
vn -0.275591 0.96063 0 
vn 0 0 -1 
vn 0 0 -1 
vn 0 0 -1 
vn 0 0 -1 
vn 0.96063 0.275591 0 
vn 0.96063 0.275591 0 
vn 0.96063 0.275591 0 
vn 0.96063 0.275591 0 
vn 0.275591 -0.96063 0 
vn 0.275591 -0.96063 0 
vn 0.275591 -0.96063 0 
vn 0.275591 -0.96063 0 
vn 0 0 1 
vn 0 0 1 
vn 0 0 1 
vn 0 0 1 

vt 6.29667 -1.62037 
vt 1.29667 -1.62037 
vt 6.29667 -2.72037 
vt 1.29667 -2.72037 
vt 1.49667 -1.62037 
vt 1.29667 -1.62037 
vt 1.49667 -6.62037 
vt 1.29667 -6.62037 
vt 1.49667 -1.62037 
vt 1.29667 -1.62037 
vt 1.49667 -2.72037 
vt 1.29667 -2.72037 
vt 6.29667 -1.62037 
vt 1.29667 -1.62037 
vt 6.29667 -2.72037 
vt 1.29667 -2.72037 
vt 1.49667 -1.62037 
vt 1.29667 -1.62037 
vt 1.49667 -6.62037 
vt 1.29667 -6.62037 
vt 1.49667 -1.62037 
vt 1.29667 -1.62037 
vt 1.49667 -2.72037 
vt 1.29667 -2.72037 

usemtl Monitor41Mtl

f 1/1/1 2/2/2 3/3/3 
f 3/3/3 2/2/2 4/4/4 
f 5/5/5 6/6/6 7/7/7 
f 7/7/7 6/6/6 8/8/8 
f 9/9/9 10/10/10 11/11/11 
f 11/11/11 10/10/10 12/12/12 
f 13/13/13 14/14/14 15/15/15 
f 15/15/15 14/14/14 16/16/16 
f 17/17/17 18/18/18 19/19/19 
f 19/19/19 18/18/18 20/20/20 
f 21/21/21 22/22/22 23/23/23 
f 23/23/23 22/22/22 24/24/24 

g Monitor51

v -2637.14 34.4355 2731.06 
v -2637.14 34.4341 2736.06 
v -2637.45 33.3781 2731.06 
v -2637.45 33.3766 2736.06 
v -2637.34 34.4892 2736.06 
v -2637.14 34.4341 2736.06 
v -2637.33 34.4906 2731.06 
v -2637.14 34.4355 2731.06 
v -2637.14 34.4341 2736.06 
v -2637.34 34.4892 2736.06 
v -2637.45 33.3766 2736.06 
v -2637.64 33.4317 2736.06 
v -2637.34 34.4892 2736.06 
v -2637.33 34.4906 2731.06 
v -2637.64 33.4317 2736.06 
v -2637.64 33.4332 2731.06 
v -2637.64 33.4332 2731.06 
v -2637.45 33.3781 2731.06 
v -2637.64 33.4317 2736.06 
v -2637.45 33.3766 2736.06 
v -2637.33 34.4906 2731.06 
v -2637.14 34.4355 2731.06 
v -2637.64 33.4332 2731.06 
v -2637.45 33.3781 2731.06 

vn 0.96063 -0.275591 0 
vn 0.96063 -0.275591 0 
vn 0.96063 -0.275591 0 
vn 0.96063 -0.275591 0 
vn 0.275591 0.96063 0 
vn 0.275591 0.96063 0 
vn 0.275591 0.96063 0 
vn 0.275591 0.96063 0 
vn 0 0 1 
vn 0 0 1 
vn 0 0 1 
vn 0 0 1 
vn -0.96063 0.275591 0 
vn -0.96063 0.275591 0 
vn -0.96063 0.275591 0 
vn -0.96063 0.275591 0 
vn -0.275591 -0.96063 0 
vn -0.275591 -0.96063 0 
vn -0.275591 -0.96063 0 
vn -0.275591 -0.96063 0 
vn 0 0 -1 
vn 0 0 -1 
vn 0 0 -1 
vn 0 0 -1 

vt 8.03743 4.13814 
vt 3.03743 4.13814 
vt 8.03743 3.03814 
vt 3.03743 3.03814 
vt 3.23743 4.13814 
vt 3.03743 4.13814 
vt 3.23743 -0.861856 
vt 3.03743 -0.861856 
vt 3.23743 4.13814 
vt 3.03743 4.13814 
vt 3.23743 3.03814 
vt 3.03743 3.03814 
vt 8.03743 4.13814 
vt 3.03743 4.13814 
vt 8.03743 3.03814 
vt 3.03743 3.03814 
vt 3.23743 4.13814 
vt 3.03743 4.13814 
vt 3.23743 -0.861856 
vt 3.03743 -0.861856 
vt 3.23743 4.13814 
vt 3.03743 4.13814 
vt 3.23743 3.03814 
vt 3.03743 3.03814 

usemtl Monitor41Mtl

f 25/25/25 26/26/26 27/27/27 
f 27/27/27 26/26/26 28/28/28 
f 29/29/29 30/30/30 31/31/31 
f 31/31/31 30/30/30 32/32/32 
f 33/33/33 34/34/34 35/35/35 
f 35/35/35 34/34/34 36/36/36 
f 37/37/37 38/38/38 39/39/39 
f 39/39/39 38/38/38 40/40/40 
f 41/41/41 42/42/42 43/43/43 
f 43/43/43 42/42/42 44/44/44 
f 45/45/45 46/46/46 47/47/47 
f 47/47/47 46/46/46 48/48/48 

g Monitor1

v -2658.84 34.4488 2736.06 
v -2658.84 34.45 2731.06 
v -2658.54 33.391 2736.05 
v -2658.54 33.3922 2731.05 
v -2658.65 34.5049 2731.06 
v -2658.84 34.45 2731.06 
v -2658.65 34.5037 2736.06 
v -2658.84 34.4488 2736.06 
v -2658.84 34.45 2731.06 
v -2658.65 34.5049 2731.06 
v -2658.54 33.3922 2731.05 
v -2658.34 33.4471 2731.05 
v -2658.65 34.5049 2731.06 
v -2658.65 34.5037 2736.06 
v -2658.34 33.4471 2731.05 
v -2658.34 33.4459 2736.05 
v -2658.34 33.4459 2736.05 
v -2658.54 33.391 2736.05 
v -2658.34 33.4471 2731.05 
v -2658.54 33.3922 2731.05 
v -2658.65 34.5037 2736.06 
v -2658.84 34.4488 2736.06 
v -2658.34 33.4459 2736.05 
v -2658.54 33.391 2736.05 

vn -0.96063 -0.275591 0 
vn -0.96063 -0.275591 0 
vn -0.96063 -0.275591 0 
vn -0.96063 -0.275591 0 
vn -0.275591 0.96063 0 
vn -0.275591 0.96063 0 
vn -0.275591 0.96063 0 
vn -0.275591 0.96063 0 
vn 0 0 -1 
vn 0 0 -1 
vn 0 0 -1 
vn 0 0 -1 
vn 0.96063 0.275591 0 
vn 0.96063 0.275591 0 
vn 0.96063 0.275591 0 
vn 0.96063 0.275591 0 
vn 0.275591 -0.96063 0 
vn 0.275591 -0.96063 0 
vn 0.275591 -0.96063 0 
vn 0.275591 -0.96063 0 
vn 0 0 1 
vn 0 0 1 
vn 0 0 1 
vn 0 0 1 

vt 3.39536 1.09534 
vt -1.60464 1.09534 
vt 3.39536 -0.00466216 
vt -1.60464 -0.00466216 
vt -1.40464 1.09534 
vt -1.60464 1.09534 
vt -1.40464 -3.90466 
vt -1.60464 -3.90466 
vt -1.40464 1.09534 
vt -1.60464 1.09534 
vt -1.40464 -0.00466216 
vt -1.60464 -0.00466216 
vt 3.39536 1.09534 
vt -1.60464 1.09534 
vt 3.39536 -0.00466216 
vt -1.60464 -0.00466216 
vt -1.40464 1.09534 
vt -1.60464 1.09534 
vt -1.40464 -3.90466 
vt -1.60464 -3.90466 
vt -1.40464 1.09534 
vt -1.60464 1.09534 
vt -1.40464 -0.00466216 
vt -1.60464 -0.00466216 

usemtl Monitor41Mtl

f 49/49/49 50/50/50 51/51/51 
f 51/51/51 50/50/50 52/52/52 
f 53/53/53 54/54/54 55/55/55 
f 55/55/55 54/54/54 56/56/56 
f 57/57/57 58/58/58 59/59/59 
f 59/59/59 58/58/58 60/60/60 
f 61/61/61 62/62/62 63/63/63 
f 63/63/63 62/62/62 64/64/64 
f 65/65/65 66/66/66 67/67/67 
f 67/67/67 66/66/66 68/68/68 
f 69/69/69 70/70/70 71/71/71 
f 71/71/71 70/70/70 72/72/72 

g Monitor31

v -2678.84 34.4637 2731.05 
v -2678.84 34.4623 2736.05 
v -2679.15 33.4063 2731.05 
v -2679.15 33.4049 2736.05 
v -2679.04 34.5174 2736.05 
v -2678.84 34.4623 2736.05 
v -2679.04 34.5188 2731.05 
v -2678.84 34.4637 2731.05 
v -2678.84 34.4623 2736.05 
v -2679.04 34.5174 2736.05 
v -2679.15 33.4049 2736.05 
v -2679.34 33.46 2736.05 
v -2679.04 34.5174 2736.05 
v -2679.04 34.5188 2731.05 
v -2679.34 33.46 2736.05 
v -2679.34 33.4614 2731.05 
v -2679.34 33.4614 2731.05 
v -2679.15 33.4063 2731.05 
v -2679.34 33.46 2736.05 
v -2679.15 33.4049 2736.05 
v -2679.04 34.5188 2731.05 
v -2678.84 34.4637 2731.05 
v -2679.34 33.4614 2731.05 
v -2679.15 33.4063 2731.05 

vn 0.96063 -0.275591 0 
vn 0.96063 -0.275591 0 
vn 0.96063 -0.275591 0 
vn 0.96063 -0.275591 0 
vn 0.275591 0.96063 0 
vn 0.275591 0.96063 0 
vn 0.275591 0.96063 0 
vn 0.275591 0.96063 0 
vn 0 0 1 
vn 0 0 1 
vn 0 0 1 
vn 0 0 1 
vn -0.96063 0.275591 0 
vn -0.96063 0.275591 0 
vn -0.96063 0.275591 0 
vn -0.96063 0.275591 0 
vn -0.275591 -0.96063 0 
vn -0.275591 -0.96063 0 
vn -0.275591 -0.96063 0 
vn -0.275591 -0.96063 0 
vn 0 0 -1 
vn 0 0 -1 
vn 0 0 -1 
vn 0 0 -1 

vt 2.5326 2.41323 
vt -2.4674 2.41323 
vt 2.5326 1.31323 
vt -2.4674 1.31323 
vt -2.2674 2.41323 
vt -2.4674 2.41323 
vt -2.2674 -2.58677 
vt -2.4674 -2.58677 
vt -2.2674 2.41323 
vt -2.4674 2.41323 
vt -2.2674 1.31323 
vt -2.4674 1.31323 
vt 2.5326 2.41323 
vt -2.4674 2.41323 
vt 2.5326 1.31323 
vt -2.4674 1.31323 
vt -2.2674 2.41323 
vt -2.4674 2.41323 
vt -2.2674 -2.58677 
vt -2.4674 -2.58677 
vt -2.2674 2.41323 
vt -2.4674 2.41323 
vt -2.2674 1.31323 
vt -2.4674 1.31323 

usemtl Monitor41Mtl

f 73/73/73 74/74/74 75/75/75 
f 75/75/75 74/74/74 76/76/76 
f 77/77/77 78/78/78 79/79/79 
f 79/79/79 78/78/78 80/80/80 
f 81/81/81 82/82/82 83/83/83 
f 83/83/83 82/82/82 84/84/84 
f 85/85/85 86/86/86 87/87/87 
f 87/87/87 86/86/86 88/88/88 
f 89/89/89 90/90/90 91/91/91 
f 91/91/91 90/90/90 92/92/92 
f 93/93/93 94/94/94 95/95/95 
f 95/95/95 94/94/94 96/96/96 

g Monitor21

v -2679.74 34.463 2736.05 
v -2679.74 34.4642 2731.05 
v -2679.44 33.4052 2736.05 
v -2679.44 33.4064 2731.05 
v -2679.55 34.5191 2731.05 
v -2679.74 34.4642 2731.05 
v -2679.55 34.5178 2736.05 
v -2679.74 34.463 2736.05 
v -2679.74 34.4642 2731.05 
v -2679.55 34.5191 2731.05 
v -2679.44 33.4064 2731.05 
v -2679.24 33.4613 2731.05 
v -2679.55 34.5191 2731.05 
v -2679.55 34.5178 2736.05 
v -2679.24 33.4613 2731.05 
v -2679.24 33.46 2736.05 
v -2679.24 33.46 2736.05 
v -2679.44 33.4052 2736.05 
v -2679.24 33.4613 2731.05 
v -2679.44 33.4064 2731.05 
v -2679.55 34.5178 2736.05 
v -2679.74 34.463 2736.05 
v -2679.24 33.46 2736.05 
v -2679.44 33.4052 2736.05 

vn -0.96063 -0.275591 0 
vn -0.96063 -0.275591 0 
vn -0.96063 -0.275591 0 
vn -0.96063 -0.275591 0 
vn -0.275591 0.96063 0 
vn -0.275591 0.96063 0 
vn -0.275591 0.96063 0 
vn -0.275591 0.96063 0 
vn 0 0 -1 
vn 0 0 -1 
vn 0 0 -1 
vn 0 0 -1 
vn 0.96063 0.275591 0 
vn 0.96063 0.275591 0 
vn 0.96063 0.275591 0 
vn 0.96063 0.275591 0 
vn 0.275591 -0.96063 0 
vn 0.275591 -0.96063 0 
vn 0.275591 -0.96063 0 
vn 0.275591 -0.96063 0 
vn 0 0 1 
vn 0 0 1 
vn 0 0 1 
vn 0 0 1 

vt 3.87571 2.80488 
vt -1.12429 2.80488 
vt 3.87571 1.70488 
vt -1.12429 1.70488 
vt -0.924285 2.80488 
vt -1.12429 2.80488 
vt -0.924285 -2.19512 
vt -1.12429 -2.19512 
vt -0.924285 2.80488 
vt -1.12429 2.80488 
vt -0.924285 1.70488 
vt -1.12429 1.70488 
vt 3.87571 2.80488 
vt -1.12429 2.80488 
vt 3.87571 1.70488 
vt -1.12429 1.70488 
vt -0.924285 2.80488 
vt -1.12429 2.80488 
vt -0.924285 -2.19512 
vt -1.12429 -2.19512 
vt -0.924285 2.80488 
vt -1.12429 2.80488 
vt -0.924285 1.70488 
vt -1.12429 1.70488 

usemtl Monitor41Mtl

f 97/97/97 98/98/98 99/99/99 
f 99/99/99 98/98/98 100/100/100 
f 101/101/101 102/102/102 103/103/103 
f 103/103/103 102/102/102 104/104/104 
f 105/105/105 106/106/106 107/107/107 
f 107/107/107 106/106/106 108/108/108 
f 109/109/109 110/110/110 111/111/111 
f 111/111/111 110/110/110 112/112/112 
f 113/113/113 114/114/114 115/115/115 
f 115/115/115 114/114/114 116/116/116 
f 117/117/117 118/118/118 119/119/119 
f 119/119/119 118/118/118 120/120/120 

g Monitor11

v -2657.94 34.4496 2731.06 
v -2657.94 34.4482 2736.06 
v -2658.25 33.3921 2731.05 
v -2658.25 33.3907 2736.05 
v -2658.14 34.5033 2736.06 
v -2657.94 34.4482 2736.06 
v -2658.14 34.5047 2731.06 
v -2657.94 34.4496 2731.06 
v -2657.94 34.4482 2736.06 
v -2658.14 34.5033 2736.06 
v -2658.25 33.3907 2736.05 
v -2658.44 33.4458 2736.05 
v -2658.14 34.5033 2736.06 
v -2658.14 34.5047 2731.06 
v -2658.44 33.4458 2736.05 
v -2658.44 33.4472 2731.05 
v -2658.44 33.4472 2731.05 
v -2658.25 33.3921 2731.05 
v -2658.44 33.4458 2736.05 
v -2658.25 33.3907 2736.05 
v -2658.14 34.5047 2731.06 
v -2657.94 34.4496 2731.06 
v -2658.44 33.4472 2731.05 
v -2658.25 33.3921 2731.05 

vn 0.96063 -0.275591 0 
vn 0.96063 -0.275591 0 
vn 0.96063 -0.275591 0 
vn 0.96063 -0.275591 0 
vn 0.275591 0.96063 0 
vn 0.275591 0.96063 0 
vn 0.275591 0.96063 0 
vn 0.275591 0.96063 0 
vn 0 0 1 
vn 0 0 1 
vn 0 0 1 
vn 0 0 1 
vn -0.96063 0.275591 0 
vn -0.96063 0.275591 0 
vn -0.96063 0.275591 0 
vn -0.96063 0.275591 0 
vn -0.275591 -0.96063 0 
vn -0.275591 -0.96063 0 
vn -0.275591 -0.96063 0 
vn -0.275591 -0.96063 0 
vn 0 0 -1 
vn 0 0 -1 
vn 0 0 -1 
vn 0 0 -1 

vt 8.03743 2.41323 
vt 3.03743 2.41323 
vt 8.03743 1.31323 
vt 3.03743 1.31323 
vt 3.23743 2.41323 
vt 3.03743 2.41323 
vt 3.23743 -2.58677 
vt 3.03743 -2.58677 
vt 3.23743 2.41323 
vt 3.03743 2.41323 
vt 3.23743 1.31323 
vt 3.03743 1.31323 
vt 8.03743 2.41323 
vt 3.03743 2.41323 
vt 8.03743 1.31323 
vt 3.03743 1.31323 
vt 3.23743 2.41323 
vt 3.03743 2.41323 
vt 3.23743 -2.58677 
vt 3.03743 -2.58677 
vt 3.23743 2.41323 
vt 3.03743 2.41323 
vt 3.23743 1.31323 
vt 3.03743 1.31323 

usemtl Monitor41Mtl

f 121/121/121 122/122/122 123/123/123 
f 123/123/123 122/122/122 124/124/124 
f 125/125/125 126/126/126 127/127/127 
f 127/127/127 126/126/126 128/128/128 
f 129/129/129 130/130/130 131/131/131 
f 131/131/131 130/130/130 132/132/132 
f 133/133/133 134/134/134 135/135/135 
f 135/135/135 134/134/134 136/136/136 
f 137/137/137 138/138/138 139/139/139 
f 139/139/139 138/138/138 140/140/140 
f 141/141/141 142/142/142 143/143/143 
f 143/143/143 142/142/142 144/144/144 

